<!DOCTYPE svg PUBLIC "-//W3C//DTD SVG 1.1//EN"
  "http://www.w3.org/Graphics/SVG/1.1/DTD/svg11.dtd">
<svg id="myLogo" xmlns="http://www.w3.org/2000/svg" viewBox="0 0 282.17 305.44">
  <defs>
    <style>
      .cls-1, .cls-2, .cls-3 {
        fill: none;
      }

      .cls-1, .cls-2, .cls-3, .cls-5 {
        stroke: #111161;
        stroke-miterlimit: 10;
      }

      .cls-1 {
        stroke-width: 4px;
      }

      .cls-2 {
        stroke-width: 2px;
      }

      .cls-3 {
        stroke-width: 3px;
      }

      .cls-4, .cls-5 {
        fill: #111161;
      }
    </style>
  </defs>
  <title>logo_eryzios</title>
  <g id="Calque_1" data-name="Calque 1" >
    <g>
      <polygon class="cls-1" points="210.48 2 71.69 2 2.29 126.2 71.69 250.4 210.48 250.4 279.88 126.2 210.48 2"/>
      <polygon class="cls-2" points="203.63 14.26 141.08 14.26 78.54 14.26 47.26 70.23 15.99 126.2 47.26 182.17 78.54 238.15 141.08 238.15 203.63 238.15 234.91 182.17 266.18 126.2 234.91 70.23 203.63 14.26"/>
      <g>
        <line class="cls-3" x1="210.48" y1="2" x2="203.63" y2="14.26"/>
        <line class="cls-3" x1="71.69" y1="2" x2="78.54" y2="14.26"/>
        <path class="cls-4" d="M211.23,3.4,72.72,3.9l6.57,11.76h125.1Z" transform="translate(-0.75 -1.4)"/>
      </g>
      <g>
        <line class="cls-3" x1="203.63" y1="238.15" x2="210.48" y2="250.4" />
        <line class="cls-3" x1="266.18" y1="126.2" x2="279.88" y2="126.2"/>
        <path class="cls-4" d="M211.5,251.33q34.56-61.86,69.13-123.73h-13.7l-62.54,112Z" transform="translate(-0.75 -1.4)"/>
      </g>
      <g>
        <line class="cls-3" x1="71.69" y1="250.4" x2="78.54" y2="238.15"/>
        <line class="cls-3" x1="15.99" y1="126.2" x2="2.29" y2="126.2"/>
        <path class="cls-4" d="M72.44,251.8Q37.75,189.7,3,127.6h13.7l62.55,112Z" transform="translate(-0.75 -1.4)"/>
      </g>
    </g>
  </g>
  <g id="Calque_6" data-name="Calque 6">
    <path class="cls-4" d="M102.54,113.59v47.07h62.07V136.39a6.44,6.44,0,0,1,1.1-4.21,4,4,0,0,1,5.86,0,6.38,6.38,0,0,1,1.11,4.21v32.49H83.62a5.92,5.92,0,0,1-4.14-1.18,4.15,4.15,0,0,1,0-5.92,6.14,6.14,0,0,1,4.14-1.12H94.47v-98H83.62a6.14,6.14,0,0,1-4.14-1.13,4.21,4.21,0,0,1,0-6,6.19,6.19,0,0,1,4.14-1.12h84.83V82.67a6.44,6.44,0,0,1-1.1,4.21,4,4,0,0,1-5.86,0,6.38,6.38,0,0,1-1.11-4.21V62.61H102.54v42.76h28.92v-9.3a6.18,6.18,0,0,1,1.16-4.2,3.82,3.82,0,0,1,3-1.28,3.74,3.74,0,0,1,2.89,1.28,6.24,6.24,0,0,1,1.15,4.2v26.82a6.22,6.22,0,0,1-1.15,4.2,3.74,3.74,0,0,1-2.89,1.28,3.82,3.82,0,0,1-3-1.28,6.17,6.17,0,0,1-1.16-4.2v-9.3Z" transform="translate(-0.75 -1.4)"/>
    <path class="cls-4" d="M205.5,197.54H127.78V185.61L193.3,92v-.68H139.59v24.17c0,2-.38,3.45-1.15,4.3a3.83,3.83,0,0,1-3,1.27,3.72,3.72,0,0,1-2.88-1.27c-.77-.85-1.15-2.28-1.15-4.3V83.06h69.65V94.7l-65.52,93.74v.89h61.87V160.65c0-2,.37-3.45,1.11-4.3a4,4,0,0,1,5.86,0c.73.85,1.1,2.28,1.1,4.3Z" transform="translate(-0.75 -1.4)"/>
  </g>
  <g id="Calque_7" data-name="Calque 7">
    <g>
      <path class="cls-5" d="M38.88,281.92v12.35H55.56V287.9a1.63,1.63,0,0,1,.3-1.1,1.09,1.09,0,0,1,1.58,0,1.69,1.69,0,0,1,.29,1.1v8.53H33.79a1.65,1.65,0,0,1-1.11-.31,1.09,1.09,0,0,1,0-1.56,1.72,1.72,0,0,1,1.11-.29h2.92V268.54H33.79a1.66,1.66,0,0,1-1.11-.3,1,1,0,0,1-.33-.78,1,1,0,0,1,.33-.78,1.66,1.66,0,0,1,1.11-.3H56.6v7.42a1.66,1.66,0,0,1-.3,1.11,1,1,0,0,1-.79.33,1,1,0,0,1-.79-.33,1.72,1.72,0,0,1-.29-1.11v-5.26H38.88v11.22h7.77v-2.44a1.62,1.62,0,0,1,.31-1.1,1,1,0,0,1,.8-.34,1,1,0,0,1,.78.34,1.57,1.57,0,0,1,.31,1.1v7a1.57,1.57,0,0,1-.31,1.1,1,1,0,0,1-.78.33,1.06,1.06,0,0,1-.8-.33,1.62,1.62,0,0,1-.31-1.1v-2.44Z" transform="translate(-0.75 -1.4)"/>
      <path class="cls-5" d="M75.09,274.19v5.44a36.74,36.74,0,0,1,6.34-4.89,8.49,8.49,0,0,1,3.89-1.09,5.76,5.76,0,0,1,3.6,1.29c1.11.87,1.67,1.52,1.67,2A1.11,1.11,0,0,1,89.45,278,1,1,0,0,1,89,278a3.62,3.62,0,0,1-.67-.58,6.36,6.36,0,0,0-1.58-1.23,3,3,0,0,0-1.31-.34A7.36,7.36,0,0,0,82,276.93a52.12,52.12,0,0,0-6.93,5.53v11.81H84.7a1.74,1.74,0,0,1,1.13.29,1.06,1.06,0,0,1,0,1.56,1.68,1.68,0,0,1-1.13.31h-17a1.64,1.64,0,0,1-1.11-.3,1,1,0,0,1-.34-.76,1,1,0,0,1,.32-.73,1.67,1.67,0,0,1,1.13-.29h5.24v-18h-4a1.58,1.58,0,0,1-1.11-.31,1,1,0,0,1-.34-.79,1,1,0,0,1,.32-.77,1.61,1.61,0,0,1,1.13-.31Z" transform="translate(-0.75 -1.4)"/>
      <path class="cls-5" d="M109.57,296.43,99.5,276.37h-.65a1.58,1.58,0,0,1-1.11-.31,1,1,0,0,1-.34-.77,1.13,1.13,0,0,1,.17-.6,1,1,0,0,1,.44-.39,2.46,2.46,0,0,1,.84-.11h5.94a1.58,1.58,0,0,1,1.11.31,1,1,0,0,1,.34.79,1,1,0,0,1-.34.77,1.58,1.58,0,0,1-1.11.31h-2.92l8.86,17.69,8.73-17.69h-2.92a1.6,1.6,0,0,1-1.11-.31,1,1,0,0,1-.33-.79,1,1,0,0,1,.33-.77,1.6,1.6,0,0,1,1.11-.31h5.92a1.63,1.63,0,0,1,1.13.31,1,1,0,0,1,.34.79,1,1,0,0,1-.21.62,1,1,0,0,1-.46.37,6.52,6.52,0,0,1-1.45.09l-13.74,27.81h3.38a1.64,1.64,0,0,1,1.11.3,1,1,0,0,1,.34.78,1,1,0,0,1-.34.77,1.58,1.58,0,0,1-1.11.31H99a1.67,1.67,0,0,1-1.11-.3,1,1,0,0,1-.33-.78,1,1,0,0,1,.33-.78,1.67,1.67,0,0,1,1.11-.3h6.8Z" transform="translate(-0.75 -1.4)"/>
      <path class="cls-5" d="M150.66,274.19v1.92l-16.25,18.16h14.67v-3a1.63,1.63,0,0,1,.3-1.1,1,1,0,0,1,.79-.34,1,1,0,0,1,.8.34,1.57,1.57,0,0,1,.31,1.1l0,5.14H131.42V294.5l16.17-18.13H134.1v2.93a1.57,1.57,0,0,1-.31,1.1,1,1,0,0,1-.77.34,1.06,1.06,0,0,1-.8-.34,1.57,1.57,0,0,1-.31-1.1v-5.11Z" transform="translate(-0.75 -1.4)"/>
      <path class="cls-5" d="M174.06,274.19v20.08h8.52a1.79,1.79,0,0,1,1.14.29,1.09,1.09,0,0,1,0,1.56,1.73,1.73,0,0,1-1.14.31H163.37a1.64,1.64,0,0,1-1.11-.31,1.06,1.06,0,0,1,0-1.56,1.7,1.7,0,0,1,1.11-.29h8.52v-17.9h-6.33a1.63,1.63,0,0,1-1.12-.31,1,1,0,0,1-.35-.77,1,1,0,0,1,.33-.79,1.67,1.67,0,0,1,1.14-.31ZM174,263.12v5.57h-3.2v-5.57Z" transform="translate(-0.75 -1.4)"/>
      <path class="cls-5" d="M216.78,285.36a11.4,11.4,0,0,1-3.55,8.42,12.29,12.29,0,0,1-17.17,0,11.8,11.8,0,0,1,0-16.85,12.29,12.29,0,0,1,17.17,0A11.44,11.44,0,0,1,216.78,285.36Zm-2.2,0a9.34,9.34,0,0,0-2.9-6.91,10.11,10.11,0,0,0-14.08,0,9.61,9.61,0,0,0,0,13.78,10.06,10.06,0,0,0,14.08,0A9.34,9.34,0,0,0,214.58,285.36Z" transform="translate(-0.75 -1.4)"/>
      <path class="cls-5" d="M243.56,275.6a1.53,1.53,0,0,1,.31-1.08,1,1,0,0,1,.77-.33,1,1,0,0,1,.8.33,1.63,1.63,0,0,1,.31,1.13v3.7a1.57,1.57,0,0,1-.31,1.1,1.09,1.09,0,0,1-1.53.05,1.33,1.33,0,0,1-.35-.92A3.43,3.43,0,0,0,242,277a9.8,9.8,0,0,0-5.61-1.44,9.52,9.52,0,0,0-5.65,1.46,3.09,3.09,0,0,0-1.53,2.47A3,3,0,0,0,231,282.1a13.54,13.54,0,0,0,4.7,1.1,32.74,32.74,0,0,1,6.28,1.1,7.9,7.9,0,0,1,3.73,2.5,5.5,5.5,0,0,1,1.23,3.44,6.22,6.22,0,0,1-2.66,4.89q-2.67,2.14-7.8,2.14a13.14,13.14,0,0,1-8.42-2.59,3.68,3.68,0,0,1-.11,1.13,1,1,0,0,1-.37.44,1.07,1.07,0,0,1-.61.18,1,1,0,0,1-.77-.34,1.57,1.57,0,0,1-.31-1.1v-4.45a1.69,1.69,0,0,1,.29-1.1,1,1,0,0,1,.79-.33,1.06,1.06,0,0,1,.79.32,1.17,1.17,0,0,1,.32.86,3.19,3.19,0,0,0,.6,2,6.51,6.51,0,0,0,2.88,2,12.75,12.75,0,0,0,4.84.81c2.82,0,4.92-.53,6.3-1.57a4.3,4.3,0,0,0,2.07-3.31,3.61,3.61,0,0,0-2.1-3.21,15.79,15.79,0,0,0-6.15-1.62,24.59,24.59,0,0,1-5.8-1.08,5.84,5.84,0,0,1-2.74-2,4.73,4.73,0,0,1-1-2.88,4.93,4.93,0,0,1,2.74-4.4,12.48,12.48,0,0,1,6.53-1.63A11.56,11.56,0,0,1,243.56,275.6Z" transform="translate(-0.75 -1.4)"/>
    </g>
  </g>
</svg>
